<mxfile host="app.diagrams.net" modified="2023-07-27T05:38:39.983Z" agent="Mozilla/5.0 (Windows NT 10.0; Win64; x64) AppleWebKit/537.36 (KHTML, like Gecko) Chrome/115.0.0.0 Safari/537.36" etag="F7--DcYp-V7yL3_Lr-IX" version="21.6.5" type="device">
  <diagram name="‫עמוד-1‬" id="U2lnR8GlHp_0x3b8kIlh">
    <mxGraphModel dx="818" dy="486" grid="1" gridSize="10" guides="1" tooltips="1" connect="1" arrows="1" fold="1" page="1" pageScale="1" pageWidth="827" pageHeight="1169" math="0" shadow="0">
      <root>
        <mxCell id="0" />
        <mxCell id="1" parent="0" />
        <mxCell id="6h9PG7Tcp1ILg21RZ9pY-18" style="edgeStyle=orthogonalEdgeStyle;rounded=0;orthogonalLoop=1;jettySize=auto;html=1;exitX=1;exitY=0.5;exitDx=0;exitDy=0;" parent="1" source="FEJz4vRI08mbjHD0iX-4-1" edge="1">
          <mxGeometry relative="1" as="geometry">
            <mxPoint x="550" y="100" as="targetPoint" />
          </mxGeometry>
        </mxCell>
        <mxCell id="FEJz4vRI08mbjHD0iX-4-1" value="levels - array" style="rounded=1;whiteSpace=wrap;html=1;" parent="1" vertex="1">
          <mxGeometry x="330" y="70" width="140" height="60" as="geometry" />
        </mxCell>
        <mxCell id="6h9PG7Tcp1ILg21RZ9pY-1" value="class 1" style="rounded=1;whiteSpace=wrap;html=1;" parent="1" vertex="1">
          <mxGeometry x="200" y="170" width="90" height="40" as="geometry" />
        </mxCell>
        <mxCell id="6h9PG7Tcp1ILg21RZ9pY-2" value="class 2" style="rounded=1;whiteSpace=wrap;html=1;" parent="1" vertex="1">
          <mxGeometry x="310" y="170" width="90" height="40" as="geometry" />
        </mxCell>
        <mxCell id="6h9PG7Tcp1ILg21RZ9pY-3" value="class 3" style="rounded=1;whiteSpace=wrap;html=1;" parent="1" vertex="1">
          <mxGeometry x="420" y="170" width="90" height="40" as="geometry" />
        </mxCell>
        <mxCell id="6h9PG7Tcp1ILg21RZ9pY-4" value="" style="endArrow=none;html=1;rounded=0;" parent="1" edge="1">
          <mxGeometry width="50" height="50" relative="1" as="geometry">
            <mxPoint x="280" y="170" as="sourcePoint" />
            <mxPoint x="330" y="120" as="targetPoint" />
          </mxGeometry>
        </mxCell>
        <mxCell id="6h9PG7Tcp1ILg21RZ9pY-5" value="" style="endArrow=none;html=1;rounded=0;exitX=0.433;exitY=0.025;exitDx=0;exitDy=0;exitPerimeter=0;entryX=0.171;entryY=1.017;entryDx=0;entryDy=0;entryPerimeter=0;" parent="1" source="6h9PG7Tcp1ILg21RZ9pY-2" target="FEJz4vRI08mbjHD0iX-4-1" edge="1">
          <mxGeometry width="50" height="50" relative="1" as="geometry">
            <mxPoint x="290" y="180" as="sourcePoint" />
            <mxPoint x="340" y="130" as="targetPoint" />
          </mxGeometry>
        </mxCell>
        <mxCell id="6h9PG7Tcp1ILg21RZ9pY-6" value="" style="endArrow=none;html=1;rounded=0;exitX=0.25;exitY=0;exitDx=0;exitDy=0;entryX=0.636;entryY=1.017;entryDx=0;entryDy=0;entryPerimeter=0;" parent="1" source="6h9PG7Tcp1ILg21RZ9pY-3" target="FEJz4vRI08mbjHD0iX-4-1" edge="1">
          <mxGeometry width="50" height="50" relative="1" as="geometry">
            <mxPoint x="359" y="181" as="sourcePoint" />
            <mxPoint x="364" y="141" as="targetPoint" />
          </mxGeometry>
        </mxCell>
        <mxCell id="6h9PG7Tcp1ILg21RZ9pY-7" value="" style="endArrow=none;dashed=1;html=1;dashPattern=1 3;strokeWidth=2;rounded=0;" parent="1" edge="1">
          <mxGeometry width="50" height="50" relative="1" as="geometry">
            <mxPoint x="530" y="190" as="sourcePoint" />
            <mxPoint x="630" y="190" as="targetPoint" />
          </mxGeometry>
        </mxCell>
        <mxCell id="6h9PG7Tcp1ILg21RZ9pY-9" value="stud 1 - (linked-list)" style="rounded=1;whiteSpace=wrap;html=1;" parent="1" vertex="1">
          <mxGeometry x="50" y="249" width="110" height="40" as="geometry" />
        </mxCell>
        <mxCell id="6h9PG7Tcp1ILg21RZ9pY-10" value="stud 2" style="rounded=1;whiteSpace=wrap;html=1;" parent="1" vertex="1">
          <mxGeometry x="170" y="249" width="110" height="40" as="geometry" />
        </mxCell>
        <mxCell id="6h9PG7Tcp1ILg21RZ9pY-11" value="" style="endArrow=none;html=1;rounded=0;exitX=0.6;exitY=-0.025;exitDx=0;exitDy=0;exitPerimeter=0;entryX=0.171;entryY=1.017;entryDx=0;entryDy=0;entryPerimeter=0;" parent="1" source="6h9PG7Tcp1ILg21RZ9pY-9" edge="1">
          <mxGeometry width="50" height="50" relative="1" as="geometry">
            <mxPoint x="150" y="259" as="sourcePoint" />
            <mxPoint x="214" y="210" as="targetPoint" />
          </mxGeometry>
        </mxCell>
        <mxCell id="6h9PG7Tcp1ILg21RZ9pY-12" value="" style="endArrow=none;html=1;rounded=0;exitX=0.6;exitY=-0.025;exitDx=0;exitDy=0;entryX=0.5;entryY=1;entryDx=0;entryDy=0;exitPerimeter=0;" parent="1" source="6h9PG7Tcp1ILg21RZ9pY-10" target="6h9PG7Tcp1ILg21RZ9pY-1" edge="1">
          <mxGeometry width="50" height="50" relative="1" as="geometry">
            <mxPoint x="303" y="249" as="sourcePoint" />
            <mxPoint x="279" y="210" as="targetPoint" />
          </mxGeometry>
        </mxCell>
        <mxCell id="6h9PG7Tcp1ILg21RZ9pY-14" value="" style="endArrow=none;dashed=1;html=1;dashPattern=1 3;strokeWidth=2;rounded=0;" parent="1" edge="1">
          <mxGeometry width="50" height="50" relative="1" as="geometry">
            <mxPoint x="300" y="268.5" as="sourcePoint" />
            <mxPoint x="400" y="268.5" as="targetPoint" />
          </mxGeometry>
        </mxCell>
        <mxCell id="6h9PG7Tcp1ILg21RZ9pY-15" value="courses - struct" style="rounded=1;whiteSpace=wrap;html=1;" parent="1" vertex="1">
          <mxGeometry x="50" y="330" width="120" height="50" as="geometry" />
        </mxCell>
        <mxCell id="6h9PG7Tcp1ILg21RZ9pY-16" value="" style="endArrow=none;html=1;rounded=0;exitX=0.5;exitY=0;exitDx=0;exitDy=0;" parent="1" source="6h9PG7Tcp1ILg21RZ9pY-15" edge="1">
          <mxGeometry width="50" height="50" relative="1" as="geometry">
            <mxPoint x="60" y="339" as="sourcePoint" />
            <mxPoint x="110" y="289" as="targetPoint" />
          </mxGeometry>
        </mxCell>
        <mxCell id="6h9PG7Tcp1ILg21RZ9pY-20" value="level name number&lt;br&gt;classes[]" style="text;html=1;align=center;verticalAlign=middle;resizable=0;points=[];autosize=1;strokeColor=none;fillColor=none;" parent="1" vertex="1">
          <mxGeometry x="550" y="80" width="130" height="40" as="geometry" />
        </mxCell>
        <mxCell id="6h9PG7Tcp1ILg21RZ9pY-21" value="struct course {&lt;br&gt;char course_name [LEN];&lt;br&gt;int grade;&lt;br&gt;bool registerd;&lt;br&gt;};" style="text;html=1;align=center;verticalAlign=middle;resizable=0;points=[];autosize=1;strokeColor=none;fillColor=none;" parent="1" vertex="1">
          <mxGeometry x="170" y="320" width="160" height="90" as="geometry" />
        </mxCell>
        <mxCell id="6h9PG7Tcp1ILg21RZ9pY-22" value="array of structs, courses[N]" style="text;html=1;align=center;verticalAlign=middle;resizable=0;points=[];autosize=1;strokeColor=none;fillColor=none;" parent="1" vertex="1">
          <mxGeometry x="25" y="390" width="170" height="30" as="geometry" />
        </mxCell>
        <mxCell id="6h9PG7Tcp1ILg21RZ9pY-23" value="enum of coursese name" style="text;html=1;align=center;verticalAlign=middle;resizable=0;points=[];autosize=1;strokeColor=none;fillColor=none;" parent="1" vertex="1">
          <mxGeometry x="110" y="450" width="150" height="30" as="geometry" />
        </mxCell>
        <mxCell id="6h9PG7Tcp1ILg21RZ9pY-24" value="&amp;nbsp; - מחשבה ראשונית - חשבתי לעשות מערך דינאמי לכל סטודנט בתוך הסטראקט שלו&lt;br&gt;ואז הוא יבחר את הקורסים שהוא לומד, הוא ירשום בקלט&lt;br&gt;או משהו כזה" style="text;html=1;align=center;verticalAlign=middle;resizable=0;points=[];autosize=1;strokeColor=none;fillColor=none;" parent="1" vertex="1">
          <mxGeometry x="325" y="365" width="410" height="60" as="geometry" />
        </mxCell>
      </root>
    </mxGraphModel>
  </diagram>
</mxfile>
